<?xml version="1.0" encoding="UTF-8" standalone="no"?>
<!-- Created with Inkscape (http://www.inkscape.org/) -->

<svg
   width="299.99994mm"
   height="300mm"
   viewBox="0 0 299.99994 299.99999"
   version="1.1"
   id="svg5"
   xml:space="preserve"
   xmlns:inkscape="http://www.inkscape.org/namespaces/inkscape"
   xmlns:sodipodi="http://sodipodi.sourceforge.net/DTD/sodipodi-0.dtd"
   xmlns="http://www.w3.org/2000/svg"
   xmlns:svg="http://www.w3.org/2000/svg"><sodipodi:namedview
     id="namedview7"
     pagecolor="#ffffff"
     bordercolor="#000000"
     borderopacity="0.25"
     inkscape:showpageshadow="2"
     inkscape:pageopacity="0.0"
     inkscape:pagecheckerboard="0"
     inkscape:deskcolor="#d1d1d1"
     inkscape:document-units="mm"
     showgrid="false" /><defs
     id="defs2" /><g
     id="g269"
     transform="matrix(0.06182227,0,0,-0.05219123,165.39574,434.65859)"
     style="display:inline"
     inkscape:export-filename="icon.svg"
     inkscape:export-xdpi="96"
     inkscape:export-ydpi="96"><path
       d="m 147.34763,2967.772 -177.210001,1422.53 314.800001,27.2 69.36,-1431.84 -206.95,-17.89"
       style="fill:#17552b;fill-opacity:1;fill-rule:nonzero;stroke:none"
       id="path323" /><path
       d="m 65.607629,3082.122 -7.14,82.48 397.230001,34.33 7.12,-82.47 -397.210001,-34.34"
       style="fill:#ffffff;fill-opacity:1;fill-rule:nonzero;stroke:none"
       id="path325" /><path
       d="m 315.35763,2807.514 c 48.25,-33.301 232.85,-79.531 232.85,-79.531 0,0 -108.7,156.239 -156.95,189.539 -48.25,33.3 -104.35,35.64 -125.31,5.29 -20.95,-30.38 1.17,-82.001 49.41,-115.298"
       style="fill:#47b23e;fill-opacity:1;fill-rule:nonzero;stroke:none"
       id="path327" /><path
       d="m 194.78763,2819.502 c -2.42,-58.551 56.96,-239.402 56.96,-239.402 0,0 74.16,175.301 76.58,233.883 2.42,58.579 -25.52,107.299 -62.38,108.829 -36.87,1.52 -68.75,-44.72 -71.16,-103.31"
       style="fill:#47b23e;fill-opacity:1;fill-rule:nonzero;stroke:none"
       id="path329" /><path
       d="m -568.87236,3576.682 v -421.66 l 263.69999,421.66 v -421.66 l 263.669999,421.66 v -421.66 l 291.860001,466.7 v 751.9 h -263.680001 -28.18 -235.509999 -28.16 -235.52999 -28.17 -263.67 v -1218.6 l 263.67,421.66"
       style="fill:#207338;fill-opacity:1;fill-rule:nonzero;stroke:none"
       id="path331" /><path
       d="m 58.137629,3830.832 h 79.010001 v -181.48 H 58.137629 v 181.48"
       style="fill:#ffffff;fill-opacity:1;fill-rule:nonzero;stroke:none"
       id="path333" /><path
       d="m -214.09237,3830.832 h 79.01 v -181.48 h -79.01 v 181.48"
       style="fill:#ffffff;fill-opacity:1;fill-rule:nonzero;stroke:none"
       id="path335" /><path
       d="m -486.3224,3830.832 h 79.01003 v -181.48 h -79.01003 v 181.48"
       style="fill:#ffffff;fill-opacity:1;fill-rule:nonzero;stroke:none"
       id="path337" /><path
       d="m -758.55236,3830.832 h 79.02 v -181.48 h -79.02 v 181.48"
       style="fill:#ffffff;fill-opacity:1;fill-rule:nonzero;stroke:none"
       id="path339" /><path
       d="m -1443.1324,6382.592 72.94,69.03 -342.513,316.77 -27.84,-26.35 297.413,-359.45"
       style="fill:#6bbb6b;fill-opacity:1;fill-rule:nonzero;stroke:none"
       id="path341" /><path
       d="m -1740.2094,6740.562 c -7.567,8 -7.219,20.62 0.781,28.18 7.988,7.57 20.609,7.23 28.168,-0.77 7.578,-8 7.227,-20.62 -0.769,-28.18 -8,-7.57 -20.614,-7.23 -28.18,0.77"
       style="fill:#6bbb6b;fill-opacity:1;fill-rule:nonzero;stroke:none"
       id="path343" /><path
       d="m -1940.8624,6744.462 c -92.578,14.88 -160.667,70.19 -160.667,70.19 0,0 81.992,31.21 174.578,16.33 92.566,-14.88 160.664,-70.19 160.664,-70.19 0,0 -81.992,-31.21 -174.575,-16.33"
       style="fill:#6bbb6b;fill-opacity:1;fill-rule:nonzero;stroke:none"
       id="path345" /><path
       d="m -1715.9324,6539.132 c -14.879,-92.57 -70.187,-160.66 -70.187,-160.66 0,0 -31.2,82 -16.325,174.57 14.883,92.57 70.192,160.67 70.192,160.67 0,0 31.203,-82 16.32,-174.58"
       style="fill:#6bbb6b;fill-opacity:1;fill-rule:nonzero;stroke:none"
       id="path347" /><path
       d="m -1735.5374,6969.402 c 14.883,92.57 70.195,160.66 70.195,160.66 0,0 31.2,-82 16.32,-174.57 -14.88,-92.57 -70.191,-160.67 -70.191,-160.67 0,0 -31.203,82 -16.324,174.58"
       style="fill:#6bbb6b;fill-opacity:1;fill-rule:nonzero;stroke:none"
       id="path349" /><path
       d="m -1223.7324,6590.222 -92.76,-87.78 -378.198,457.08 35.408,33.51 435.55,-402.81"
       style="fill:#307031;fill-opacity:1;fill-rule:nonzero;stroke:none"
       id="path351" /><path
       d="m -1657.4224,6992.502 c -9.62,10.16 -25.67,10.6 -35.842,0.97 -10.16,-9.62 -10.613,-25.66 -0.984,-35.82 9.621,-10.17 25.666,-10.61 35.826,-1 10.17,9.63 10.63,25.68 1,35.85"
       style="fill:#307031;fill-opacity:1;fill-rule:nonzero;stroke:none"
       id="path353" /><path
       d="m -1648.3124,7247.532 c -12.41,118.58 -77.882,208.9 -77.882,208.9 0,0 -45.339,-101.92 -32.941,-220.5 12.391,-118.59 77.863,-208.92 77.863,-208.92 0,0 45.36,101.93 32.96,220.52"
       style="fill:#307031;fill-opacity:1;fill-rule:nonzero;stroke:none"
       id="path355" /><path
       d="m -1403.3724,6947.562 c 118.58,12.39 208.91,77.86 208.91,77.86 0,0 -101.92,45.35 -220.5,32.95 -118.59,-12.41 -208.92,-77.88 -208.92,-77.88 0,0 101.92,-45.34 220.51,-32.93"
       style="fill:#307031;fill-opacity:1;fill-rule:nonzero;stroke:none"
       id="path357" /><path
       d="m -1948.2994,7002.592 c -118.57,-12.4 -208.906,-77.87 -208.906,-77.87 0,0 101.922,-45.36 220.5,-32.96 118.59,12.41 208.922,77.88 208.922,77.88 0,0 -101.93,45.35 -220.516,32.95"
       style="fill:#307031;fill-opacity:1;fill-rule:nonzero;stroke:none"
       id="path359" /><path
       d="m 1052.4776,5925.352 20.88,-98.24 448.89,127.09 -7.96,37.5 -461.81,-66.35"
       style="fill:#6bbb6b;fill-opacity:1;fill-rule:nonzero;stroke:none"
       id="path361" /><path
       d="m 1512.8476,5992.182 c 10.77,2.29 21.35,-4.59 23.64,-15.36 2.28,-10.76 -4.58,-21.35 -15.36,-23.63 -10.76,-2.29 -21.36,4.58 -23.64,15.35 -2.28,10.77 4.58,21.35 15.36,23.64"
       style="fill:#6bbb6b;fill-opacity:1;fill-rule:nonzero;stroke:none"
       id="path363" /><path
       d="m 1620.7976,6161.362 c 60.98,71.24 143.67,100.5 143.67,100.5 0,0 -16.13,-86.23 -77.1,-157.47 -60.96,-71.23 -143.67,-100.5 -143.67,-100.5 0,0 16.14,86.24 77.1,157.47"
       style="fill:#6bbb6b;fill-opacity:1;fill-rule:nonzero;stroke:none"
       id="path365" /><path
       d="m 1328.3076,6076.502 c -71.24,60.97 -100.49,143.67 -100.49,143.67 0,0 86.22,-16.14 157.47,-77.11 71.23,-60.96 100.49,-143.66 100.49,-143.66 0,0 -86.24,16.13 -157.47,77.1"
       style="fill:#6bbb6b;fill-opacity:1;fill-rule:nonzero;stroke:none"
       id="path367" /><path
       d="m 1705.6676,5868.872 c 71.24,-60.96 100.5,-143.68 100.5,-143.68 0,0 -86.24,16.15 -157.48,77.11 -71.23,60.97 -100.49,143.68 -100.49,143.68 0,0 86.25,-16.14 157.47,-77.11"
       style="fill:#6bbb6b;fill-opacity:1;fill-rule:nonzero;stroke:none"
       id="path369" /><path
       d="m 1115.2576,5629.872 -26.54,124.92 587.23,84.38 10.13,-47.69 -570.82,-161.61"
       style="fill:#307031;fill-opacity:1;fill-rule:nonzero;stroke:none"
       id="path371" /><path
       d="m 1684.6476,5790.182 c 13.7,2.9 22.43,16.36 19.52,30.07 -2.91,13.68 -16.36,22.44 -30.05,19.52 -13.69,-2.9 -22.44,-16.37 -19.53,-30.05 2.91,-13.7 16.37,-22.46 30.06,-19.54"
       style="fill:#307031;fill-opacity:1;fill-rule:nonzero;stroke:none"
       id="path373" /><path
       d="m 1897.5176,5649.432 c 107.65,-51.26 218.87,-42.49 218.87,-42.49 0,0 -63.32,91.84 -170.98,143.09 -107.65,51.27 -218.87,42.5 -218.87,42.5 0,0 63.33,-91.86 170.98,-143.1"
       style="fill:#307031;fill-opacity:1;fill-rule:nonzero;stroke:none"
       id="path375" /><path
       d="m 1513.8376,5596.822 c -51.26,-107.64 -42.49,-218.85 -42.49,-218.85 0,0 91.84,63.31 143.09,170.97 51.26,107.66 42.49,218.88 42.49,218.88 0,0 -91.85,-63.33 -143.09,-171"
       style="fill:#307031;fill-opacity:1;fill-rule:nonzero;stroke:none"
       id="path377" /><path
       d="m 1844.9276,6033.122 c 51.25,107.64 42.5,218.85 42.5,218.85 0,0 -91.86,-63.31 -143.1,-170.96 -51.25,-107.66 -42.49,-218.87 -42.49,-218.87 0,0 91.84,63.32 143.09,170.98"
       style="fill:#307031;fill-opacity:1;fill-rule:nonzero;stroke:none"
       id="path379" /><path
       d="m -1606.9924,4981.562 299.04,-348.73 -442.902,-278.89 -78.351,-168.08 -299.035,348.73 167.816,43 353.432,403.97"
       style="fill:#3c993b;fill-opacity:1;fill-rule:nonzero;stroke:none"
       id="path381" /><path
       d="m -1370.0224,4705.222 383.68004,-447.45 -568.26004,-357.81 -100.52,-215.65 -383.673,447.41 215.308,55.18 453.465,518.32"
       style="fill:#207338;fill-opacity:1;fill-rule:nonzero;stroke:none"
       id="path383" /><path
       d="m -2112.9244,3822.112 c 4.285,-60.96 127.379,-233.98 127.379,-233.98 0,0 97.637,188.57 93.344,249.51 -4.286,60.96 -57.18,106.88 -118.125,102.6 -60.95,-4.3 -106.887,-57.19 -102.598,-118.13"
       style="fill:#1e7137;fill-opacity:1;fill-rule:nonzero;stroke:none"
       id="path385" /><path
       d="m -2150.0334,4300.782 c 2.64,-37.49 78.367,-143.94 78.367,-143.94 0,0 60.07,116 57.418,153.49 -2.637,37.51 -35.176,65.77 -72.66,63.12 -37.5,-2.64 -65.754,-35.18 -63.125,-72.67"
       style="fill:#349e3e;fill-opacity:1;fill-rule:nonzero;stroke:none"
       id="path387" /><path
       d="m -794.44236,7940.522 177.21,-1422.54 -314.8,-27.19 -69.35004,1431.84 206.94004,17.89"
       style="fill:#17552b;fill-opacity:1;fill-rule:nonzero;stroke:none"
       id="path389" /><path
       d="m -712.69236,7826.162 7.13,-82.48 -397.23004,-34.33 -7.12,82.48 397.22004,34.33"
       style="fill:#ffffff;fill-opacity:1;fill-rule:nonzero;stroke:none"
       id="path391" /><path
       d="m -962.45236,8100.772 c -48.25004,33.3 -232.86004,79.53 -232.86004,79.53 0,0 108.71,-156.24 156.96,-189.54 48.25004,-33.29 104.36004,-35.63 125.31004,-5.29 20.95,30.39 -1.17,82 -49.41,115.3"
       style="fill:#47b23e;fill-opacity:1;fill-rule:nonzero;stroke:none"
       id="path393" /><path
       d="m -841.88236,8088.782 c 2.42,58.56 -56.96,239.41 -56.96,239.41 0,0 -74.17,-175.31 -76.59,-233.88 -2.41,-58.58 25.52,-107.3 62.39,-108.84 36.87,-1.51 68.74,44.72 71.16,103.31"
       style="fill:#47b23e;fill-opacity:1;fill-rule:nonzero;stroke:none"
       id="path395" /><path
       d="m -78.222371,7331.602 v 421.66 l -263.689999,-421.66 v 421.66 l -263.67999,-421.66 v 421.66 l -291.86,-466.7 v -751.9 h 263.68 28.18 235.50999 28.17 235.52 28.169999 263.670001 v 1218.6 l -263.670001,-421.66"
       style="fill:#207338;fill-opacity:1;fill-rule:nonzero;stroke:none"
       id="path397" /><path
       d="m -705.23236,7077.452 h -79.01 v 181.49 h 79.01 v -181.49"
       style="fill:#ffffff;fill-opacity:1;fill-rule:nonzero;stroke:none"
       id="path399" /><path
       d="m -433.00237,7077.452 h -79.00999 v 181.49 h 79.00999 v -181.49"
       style="fill:#ffffff;fill-opacity:1;fill-rule:nonzero;stroke:none"
       id="path401" /><path
       d="m -160.77237,7077.452 h -79.01 v 181.49 h 79.01 v -181.49"
       style="fill:#ffffff;fill-opacity:1;fill-rule:nonzero;stroke:none"
       id="path403" /><path
       d="M 111.45763,7077.452 H 32.437629 v 181.49 h 79.020001 v -181.49"
       style="fill:#ffffff;fill-opacity:1;fill-rule:nonzero;stroke:none"
       id="path405" /><path
       d="m 959.89763,5926.722 -299.04,348.73 442.89997,278.9 78.35,168.08 299.03,-348.73 -167.81,-43.01 -353.42997,-403.97"
       style="fill:#3c993b;fill-opacity:1;fill-rule:nonzero;stroke:none"
       id="path407" /><path
       d="m 722.92763,6203.072 -383.68,447.43 568.25,357.82 100.52997,215.66 383.67,-447.42 -215.31,-55.17 -453.45997,-518.32"
       style="fill:#207338;fill-opacity:1;fill-rule:nonzero;stroke:none"
       id="path409" /><path
       d="m 1465.8276,7086.172 c -4.29,60.96 -127.38,233.98 -127.38,233.98 0,0 -97.63,-188.56 -93.34,-249.51 4.28,-60.95 57.18,-106.88 118.12,-102.59 60.95,4.3 106.89,57.18 102.6,118.12"
       style="fill:#1e7137;fill-opacity:1;fill-rule:nonzero;stroke:none"
       id="path411" /><path
       d="m 1502.9276,6607.502 c -2.64,37.5 -78.36,143.95 -78.36,143.95 0,0 -60.07,-116.01 -57.41,-153.5 2.63,-37.51 35.17,-65.76 72.66,-63.11 37.51,2.63 65.75,35.17 63.11,72.66"
       style="fill:#349e3e;fill-opacity:1;fill-rule:nonzero;stroke:none"
       id="path413" /><path
       d="m 1920.9276,4843.792 -824.13,354.48 84.94,178.59 795.03,-415.68 -55.84,-117.39"
       style="fill:#17552b;fill-opacity:1;fill-rule:nonzero;stroke:none"
       id="path415" /><path
       d="m 1515.3076,4093.082 -734.01997,349.14 213.29,448.42 734.02997,-349.15 -213.3,-448.41"
       style="fill:#1d6d35;fill-opacity:1;fill-rule:nonzero;stroke:none"
       id="path417" /><path
       d="m 1046.0676,4368.112 -361.60997,172 433.85997,912.14 361.61,-172.01 -128.71,-660.19 -305.15,-251.94"
       style="fill:#3c993b;fill-opacity:1;fill-rule:nonzero;stroke:none"
       id="path419" /><path
       d="m 1318.7776,5080.582 -129.53,61.61 38.51,80.96 129.53,-61.62 -38.51,-80.95"
       style="fill:#ffffff;fill-opacity:1;fill-rule:nonzero;stroke:none"
       id="path421" /><path
       d="m 1232.7876,4899.782 -129.55,61.61 38.51,80.96 129.54,-61.63 -38.5,-80.94"
       style="fill:#ffffff;fill-opacity:1;fill-rule:nonzero;stroke:none"
       id="path423" /><path
       d="m 1146.7776,4718.972 -129.54,61.61 38.51,80.95 129.54,-61.61 -38.51,-80.95"
       style="fill:#ffffff;fill-opacity:1;fill-rule:nonzero;stroke:none"
       id="path425" /><path
       d="m 1060.7776,4538.172 -129.53997,61.61 38.52,80.94 129.51997,-61.61 -38.5,-80.94"
       style="fill:#ffffff;fill-opacity:1;fill-rule:nonzero;stroke:none"
       id="path427" /><path
       d="m 1448.5176,3683.622 -1045.38997,511.14 281.33,345.35 955.31997,-454.41 -191.26,-402.08"
       style="fill:#155d30;fill-opacity:1;fill-rule:nonzero;stroke:none"
       id="path429" /><path
       d="m 1204.1076,4046.402 c 36.17,76.01 3.85,166.94 -72.16,203.1 -76.01,36.16 -166.93997,3.84 -203.09997,-72.17 -36.15,-76.01 -3.84,-166.94 72.16997,-203.09 76.01,-36.16 166.94,-3.85 203.09,72.16"
       style="fill:#3e9c3a;fill-opacity:1;fill-rule:nonzero;stroke:none"
       id="path431" /><path
       d="m 1133.9476,4079.772 c 17.72,37.26 1.89,81.84 -35.38,99.57 -37.25,17.71 -81.83,1.87 -99.54997,-35.39 -17.72,-37.25 -1.87,-81.82 35.36997,-99.54 37.26,-17.73 81.84,-1.89 99.56,35.36"
       style="fill:#155d30;fill-opacity:1;fill-rule:nonzero;stroke:none"
       id="path433" /><path
       d="m 1833.2976,4835.832 -46.76,22.26 107.19,225.33 46.76,-22.26 -107.19,-225.33"
       style="fill:#ffffff;fill-opacity:1;fill-rule:nonzero;stroke:none"
       id="path435" /><path
       d="m 2060.6276,4883.782 c 33.25,15.5 116.65,100.57 116.65,100.57 0,0 -118.76,-9.27 -152.01,-24.78 -33.26,-15.51 -52.29,-45.06 -42.53,-65.98 9.77,-20.93 44.64,-25.33 77.89,-9.81"
       style="fill:#47b23e;fill-opacity:1;fill-rule:nonzero;stroke:none"
       id="path437" /><path
       d="m 2016.0076,4822.482 c 30.84,-19.84 147.28,-45.01 147.28,-45.01 0,0 -71.19,95.51 -102.06,115.35 -30.85,19.86 -65.98,20.19 -78.49,0.77 -12.48,-19.44 2.4,-51.26 33.27,-71.11"
       style="fill:#47b23e;fill-opacity:1;fill-rule:nonzero;stroke:none"
       id="path439" /><path
       d="m -2495.1664,5102.212 654.668,36.13 2.511,-144.51 -655.535,13.39 -1.644,94.99"
       style="fill:#17552b;fill-opacity:1;fill-rule:nonzero;stroke:none"
       id="path441" /><path
       d="m -2473.9404,5725.462 593.95,10.31 6.293,-362.85 -593.95,-10.3 -6.293,362.84"
       style="fill:#1d6d35;fill-opacity:1;fill-rule:nonzero;stroke:none"
       id="path443" /><path
       d="m -2077.3814,5698.132 292.602,5.08 42.945,-738.76 -322.742,-4.4 -130.547,473.92 117.742,264.16"
       style="fill:#3c993b;fill-opacity:1;fill-rule:nonzero;stroke:none"
       id="path445" /><path
       d="m -2024.0694,5143.152 104.821,1.81 1.136,-65.51 -104.82,-1.81 -1.137,65.51"
       style="fill:#ffffff;fill-opacity:1;fill-rule:nonzero;stroke:none"
       id="path447" /><path
       d="m -2026.6084,5289.442 104.817,1.83 1.14,-65.51 -104.82,-1.82 -1.137,65.5"
       style="fill:#ffffff;fill-opacity:1;fill-rule:nonzero;stroke:none"
       id="path449" /><path
       d="m -2029.1474,5435.752 104.817,1.83 1.14,-65.52 -104.816,-1.81 -1.141,65.5"
       style="fill:#ffffff;fill-opacity:1;fill-rule:nonzero;stroke:none"
       id="path451" /><path
       d="m -2031.6864,5582.052 104.821,1.82 1.132,-65.5 -104.812,-1.82 -1.141,65.5"
       style="fill:#ffffff;fill-opacity:1;fill-rule:nonzero;stroke:none"
       id="path453" /><path
       d="m -2563.4444,6015.152 850.426,5.59 -71.761,-317.53 -773.012,-13.42 -5.653,325.36"
       style="fill:#155d30;fill-opacity:1;fill-rule:nonzero;stroke:none"
       id="path455" /><path
       d="m -2440.4164,5135.932 37.851,0.64 3.161,-182.33 -37.848,-0.65 -3.164,182.34"
       style="fill:#ffffff;fill-opacity:1;fill-rule:nonzero;stroke:none"
       id="path457" /><path
       d="m -2573.5804,5030.592 c -16.7151,-20.96 -43.6175,-103.76 -43.6175,-103.76 0,0 74.7075,44.69 91.4185,65.66 16.714,20.97 19.558,46.5 6.359,57.02 -13.195,10.52 -37.449,2.05 -54.16,-18.92"
       style="fill:#47b23e;fill-opacity:1;fill-rule:nonzero;stroke:none"
       id="path459" /><path
       d="m -2564.3114,5085.232 c -26.6443,2.95 -111.031,-18.47 -111.031,-18.47 0,0 77.6523,-39.34 104.316,-42.29 26.653,-2.95 49.747,8.27 51.606,25.04 1.851,16.78 -18.234,32.77 -44.891,35.72"
       style="fill:#47b23e;fill-opacity:1;fill-rule:nonzero;stroke:none"
       id="path461" /><path
       d="m 1191.9076,5454.142 c 0,836.96 -678.49997,1515.45 -1515.44997,1515.45 -836.97003,0 -1515.45603,-678.49 -1515.45603,-1515.45 0,-836.96 678.486,-1515.45 1515.45603,-1515.45 836.95,0 1515.44997,678.49 1515.44997,1515.45"
       style="fill:#47b23e;fill-opacity:1;fill-rule:nonzero;stroke:none"
       id="path463" /></g><g
     id="g19"
     transform="matrix(0.018969,0,0,-0.01968884,-29.39764,279.24618)"><path
       d="m 3505.81,4140.7 h 788.45 l 2005.26,774.15 1685.09,2539.32 2055.29,-1265.69 1776.8,864.5 1962.3,-1167.83 2032.2,2278.26 h 371.5"
       style="fill:none;stroke:#1c5dff;stroke-width:244.943;stroke-linecap:butt;stroke-linejoin:miter;stroke-miterlimit:10;stroke-dasharray:none;stroke-opacity:1"
       id="path31" /><path
       d="m 3283.84,6182.8 h 1010.3 l 2005.38,-615.32 1687.51,556.52 2052.87,-470.04 1786.5,1791.98 1875,1221.65 2022.2,-1723.51 h 459.1"
       style="display:inline;fill:none;stroke:#fb7e00;stroke-width:244.943;stroke-linecap:butt;stroke-linejoin:miter;stroke-miterlimit:10;stroke-dasharray:none;stroke-opacity:1"
       id="path47" /><g
       id="g3445"
       inkscape:label="g3445"><path
         d="m 6386.01,4914.85 c 0,-47.77 -38.73,-86.49 -86.49,-86.49 -47.77,0 -86.49,38.72 -86.49,86.49 0,47.76 38.72,86.49 86.49,86.49 47.76,0 86.49,-38.73 86.49,-86.49"
         style="fill:#280b0b;fill-opacity:1;fill-rule:nonzero;stroke:none;stroke-width:489.887;stroke-dasharray:none"
         id="path33" /><path
         d="m 10126.4,6188.48 c 0,-47.77 -38.7,-86.49 -86.5,-86.49 -47.73,0 -86.45,38.72 -86.45,86.49 0,47.77 38.72,86.49 86.45,86.49 47.8,0 86.5,-38.72 86.5,-86.49"
         style="fill:#280b0b;fill-opacity:1;fill-rule:nonzero;stroke:none;stroke-width:489.887;stroke-dasharray:none"
         id="path35" /><path
         d="m 11903.2,7052.98 c 0,-47.78 -38.8,-86.5 -86.5,-86.5 -47.8,0 -86.5,38.72 -86.5,86.5 0,47.76 38.7,86.48 86.5,86.48 47.7,0 86.5,-38.72 86.5,-86.48"
         style="fill:#280b0b;fill-opacity:1;fill-rule:nonzero;stroke:none;stroke-width:489.887;stroke-dasharray:none"
         id="path37" /><path
         d="m 13865.5,5885.15 c 0,-47.76 -38.7,-86.48 -86.5,-86.48 -47.8,0 -86.5,38.72 -86.5,86.48 0,47.78 38.7,86.5 86.5,86.5 47.8,0 86.5,-38.72 86.5,-86.5"
         style="fill:#280b0b;fill-opacity:1;fill-rule:nonzero;stroke:none;stroke-width:489.887;stroke-dasharray:none"
         id="path39" /><path
         d="m 8071.1,7454.17 c 0,-47.77 -38.72,-86.49 -86.49,-86.49 -47.76,0 -86.48,38.72 -86.48,86.49 0,47.76 38.72,86.49 86.48,86.49 47.77,0 86.49,-38.73 86.49,-86.49"
         style="fill:#280b0b;fill-opacity:1;fill-rule:nonzero;stroke:none;stroke-width:489.887;stroke-dasharray:none"
         id="path41" /><path
         d="m 4380.75,4140.71 c 0,-47.76 -38.73,-86.49 -86.5,-86.49 -47.76,0 -86.48,38.73 -86.48,86.49 0,47.76 38.72,86.48 86.48,86.48 47.77,0 86.5,-38.72 86.5,-86.48"
         style="fill:#280b0b;fill-opacity:1;fill-rule:nonzero;stroke:none;stroke-width:489.887;stroke-dasharray:none"
         id="path43" /><path
         d="m 15897.6,8163.41 c 0,-47.76 -38.7,-86.48 -86.4,-86.48 -47.8,0 -86.5,38.72 -86.5,86.48 0,47.78 38.7,86.49 86.5,86.49 47.7,0 86.4,-38.71 86.4,-86.49"
         style="fill:#241c1c;fill-opacity:1;fill-rule:nonzero;stroke:none;stroke-width:489.887;stroke-dasharray:none"
         id="path45" /><path
         d="m 4380.63,6184.51 c 0,-47.77 -38.72,-86.49 -86.49,-86.49 -47.76,0 -86.49,38.72 -86.49,86.49 0,47.77 38.73,86.48 86.49,86.48 47.77,0 86.49,-38.71 86.49,-86.48"
         style="fill:#280b0b;fill-opacity:1;fill-rule:nonzero;stroke:none;stroke-width:489.887;stroke-dasharray:none"
         id="path49" /><path
         d="m 6386.01,5567.48 c 0,-47.77 -38.73,-86.49 -86.49,-86.49 -47.77,0 -86.49,38.72 -86.49,86.49 0,47.76 38.72,86.48 86.49,86.48 47.76,0 86.49,-38.72 86.49,-86.48"
         style="fill:#280b0b;fill-opacity:1;fill-rule:nonzero;stroke:none;stroke-width:489.887;stroke-dasharray:none"
         id="path51" /><path
         d="m 8063.71,6124 c 0,-42.32 -34.33,-76.63 -76.68,-76.63 -42.35,0 -76.68,34.31 -76.68,76.63 0,42.32 34.33,76.62 76.68,76.62 42.35,0 76.68,-34.3 76.68,-76.62"
         style="fill:#280b0b;fill-opacity:1;fill-rule:nonzero;stroke:none;stroke-width:489.887;stroke-dasharray:none"
         id="path53" /><path
         d="m 10126.4,5653.96 c 0,-47.76 -38.7,-86.48 -86.5,-86.48 -47.73,0 -86.45,38.72 -86.45,86.48 0,47.77 38.72,86.5 86.45,86.5 47.8,0 86.5,-38.73 86.5,-86.5"
         style="fill:#280b0b;fill-opacity:1;fill-rule:nonzero;stroke:none;stroke-width:489.887;stroke-dasharray:none"
         id="path55" /><path
         d="m 11912.9,7445.94 c 0,-47.77 -38.8,-86.49 -86.5,-86.49 -47.8,0 -86.5,38.72 -86.5,86.49 0,47.77 38.7,86.49 86.5,86.49 47.7,0 86.5,-38.72 86.5,-86.49"
         style="fill:#280b0b;fill-opacity:1;fill-rule:nonzero;stroke:none;stroke-width:489.887;stroke-dasharray:none"
         id="path57" /><path
         d="m 15810.1,6944.08 c 0,-47.76 -38.7,-86.49 -86.5,-86.49 -47.8,0 -86.5,38.73 -86.5,86.49 0,47.76 38.7,86.49 86.5,86.49 47.8,0 86.5,-38.73 86.5,-86.49"
         style="fill:#241c1c;fill-opacity:1;fill-rule:nonzero;stroke:none;stroke-width:489.887;stroke-dasharray:none"
         id="path59" /><path
         d="m 13787.8,8667.59 c 0,-47.76 -38.7,-86.48 -86.4,-86.48 -47.8,0 -86.5,38.72 -86.5,86.48 0,47.77 38.7,86.5 86.5,86.5 47.7,0 86.4,-38.73 86.4,-86.5"
         style="fill:#280b0b;fill-opacity:1;fill-rule:nonzero;stroke:none;stroke-width:489.887;stroke-dasharray:none"
         id="path61" /></g></g></svg>
